{"title":"La.Tete.Haute.2015.BRRip.x264.HORiZON-ArtSubs","uid":12578228,"size":1443940659,"categoryP":"video","categoryS":"movies","magnet":"?xt=urn:btih:4527fc1dbefd22890f188293ad07c931e9c37ed5&amp;dn=La.Tete.Haute.2015.BRRip.x264.HORiZON-ArtSubs&amp;tr=udp%3A%2F%2Ftracker.leechers-paradise.org%3A6969&amp;tr=udp%3A%2F%2Fzer0day.ch%3A1337&amp;tr=udp%3A%2F%2Fopen.demonii.com%3A1337&amp;tr=udp%3A%2F%2Ftracker.coppersurfer.tk%3A6969&amp;tr=udp%3A%2F%2Fexodus.desync.com%3A6969","seeders":2,"leechers":0,"uploader":"lletaif","files":1,"time":1444924443,"description":"General\r\nUnique ID                                : 240998679493641373122552163653134937111 (0xB54EA84766150F7CA1C2156C90C56C17)\r\nComplete name                            : La.Tete.Haute.2015.BRRip.x264.HORiZON-ArtSubs.mkv\r\nFormat                                   : Matroska\r\nFormat version                           : Version 2\r\nFile size                                : 1.34 GiB\r\nDuration                                 : 1h 53mn\r\nOverall bit rate mode                    : Variable\r\nOverall bit rate                         : 1 690 Kbps\r\nEncoded date                             : UTC 2015-10-13 05:49:07\r\nWriting application                      : DVDFab 9.2.0.1\r\nWriting library                          : libebml v0.7.8 + libmatroska v0.8.1\r\n\r\nVideo\r\nID                                       : 1\r\nFormat                                   : AVC\r\nFormat/Info                              : Advanced Video Codec\r\nFormat profile                           :   \r\nFormat settings, CABAC                   : Yes\r\nFormat settings, ReFrames                : 2 frames\r\nCodec ID                                 : V_MPEG4/ISO/AVC\r\nDuration                                 : 1h 53mn\r\nBit rate mode                            : Variable\r\nBit rate                                 : 1 208 Kbps\r\nMaximum bit rate                         : 1 899 Kbps\r\nWidth                                    : 1 280 pixels\r\nHeight                                   : 536 pixels\r\nDisplay aspect ratio                     : 2.40:1\r\nFrame rate mode                          : Constant\r\nFrame rate                               : 25.000 fps\r\nColor space                              : YUV\r\nChroma subsampling                       : 4:2:0\r\nBit depth                                : 8 bits\r\nScan type                                : Progressive\r\nBits/(Pixel*Frame)                       : 0.070\r\nStream size                              : 985 MiB (71%)\r\nDefault                                  : Yes\r\nForced                                   : No\r\n\r\nAudio\r\nID                                       : 2\r\nFormat                                   : AC-3\r\nFormat/Info                              : Audio Coding 3\r\nMode extension                           : CM (complete main)\r\nFormat settings, Endianness              : Big\r\nCodec ID                                 : A_AC3\r\nDuration                                 : 1h 53mn\r\nBit rate mode                            : Constant\r\nBit rate                                 : 448 Kbps\r\nChannel(s)                               : 6 channels\r\nChannel positions                        : Front: L C R, Side: L R, LFE\r\nSampling rate                            : 48.0 KHz\r\nBit depth                                : 16 bits\r\nCompression mode                         : Lossy\r\nStream size                              : 365 MiB (27%)\r\nLanguage                                 : French\r\nDefault                                  : No\r\nForced                                   : No\r\n\r\nMenu\r\n00:00:00.000                             : en:00:00:00.000\r\n00:07:59.320                             : en:00:07:59.320\r\n00:19:15.240                             : en:00:19:15.240\r\n00:32:06.680                             : en:00:32:06.680\r\n00:43:26.680                             : en:00:43:26.680\r\n00:51:52.720                             : en:00:51:52.720\r\n01:01:02.960                             : en:01:01:02.960\r\n01:13:17.479                             : en:01:13:17.480\r\n01:20:27.000                             : en:01:20:27.000\r\n01:29:47.280                             : en:01:29:47.280\r\n01:39:17.080                             : en:01:39:17.080\r\n01:50:04.800                             : en:01:50:04.800","torrent":{"xt":"urn:btih:4527fc1dbefd22890f188293ad07c931e9c37ed5","amp;dn":"La.Tete.Haute.2015.BRRip.x264.HORiZON-ArtSubs","amp;tr":["udp%3A%2F%2Ftracker.leechers-paradise.org%3A6969","udp%3A%2F%2Fzer0day.ch%3A1337","udp%3A%2F%2Fopen.demonii.com%3A1337","udp%3A%2F%2Ftracker.coppersurfer.tk%3A6969","udp%3A%2F%2Fexodus.desync.com%3A6969"],"infoHash":"4527fc1dbefd22890f188293ad07c931e9c37ed5","infoHashBuffer":{"type":"Buffer","data":[69,39,252,29,190,253,34,137,15,24,130,147,173,7,201,49,233,195,126,213]},"announce":[],"urlList":[]}}